<svg width="71" height="71" viewBox="0 0 71 71" fill="none" xmlns="http://www.w3.org/2000/svg">
<g clip-path="url(#clip0)">
<path d="M36.0214 0C36.0024 0 35.9643 0 35.9072 0C16.6559 0 1 15.6559 1 34.9072C1 42.7637 3.68225 50.392 8.59018 56.5364L3.51104 68.3497C3.09253 69.3199 3.54908 70.4422 4.50024 70.8417C4.84265 70.9939 5.22311 71.0319 5.58455 70.9749L24.2081 67.7029C27.9366 69.0535 31.8553 69.7384 35.8121 69.7193C55.0634 69.7193 70.7194 54.0634 70.7194 34.8121C70.7574 15.6179 55.2156 0.019023 36.0214 0ZM24.0749 27.8877H34.3474C35.3936 27.8877 36.2497 28.7438 36.2497 29.79C36.2497 30.8363 35.3936 31.6923 34.3474 31.6923H24.0749C23.0287 31.6923 22.1726 30.8363 22.1726 29.79C22.1726 28.7438 23.0287 27.8877 24.0749 27.8877ZM47.6635 41.2038H24.0749C23.0287 41.2038 22.1726 40.3478 22.1726 39.3015C22.1726 38.2553 23.0287 37.3992 24.0749 37.3992H47.6635C48.7097 37.3992 49.5658 38.2553 49.5658 39.3015C49.5658 40.3478 48.7097 41.2038 47.6635 41.2038Z" fill="#F05A2C" fill-opacity="0.51"/>
</g>
<defs>
<clipPath id="clip0">
<rect width="71" height="71" fill="white"/>
</clipPath>
</defs>
</svg>
