<svg width="65" height="51" viewBox="0 0 65 51" fill="none" xmlns="http://www.w3.org/2000/svg">
<path d="M2.64739 50.7778H13.5481C13.839 50.7778 14.0944 50.5805 14.1724 50.2952L17.3515 38.6437H29.6928L33.1418 50.3089C33.2242 50.5873 33.4763 50.7778 33.7623 50.7778H45.0765C45.0785 50.7778 45.0806 50.7778 45.0816 50.7778C45.4394 50.7778 45.7293 50.483 45.7293 50.1193C45.7293 50.0221 45.7091 49.9299 45.6715 49.8469L31.2765 2.65039C31.1926 2.37489 30.9416 2.18683 30.6576 2.18683H16.8595C16.5745 2.18683 16.3232 2.37594 16.2401 2.65276L2.02821 49.9268C1.96863 50.1264 2.0049 50.3432 2.12692 50.511C2.2492 50.6787 2.44195 50.7778 2.64739 50.7778ZM27.7915 29.3306H19.231L21.7606 20.1378C22.2199 18.4813 22.6541 16.5212 23.0741 14.6256C23.1702 14.1902 23.2648 13.763 23.3585 13.3453C23.9143 15.6162 24.5254 18.0697 25.1381 20.1446L27.7915 29.3306Z" fill="#FF9A00"/>
<path d="M50.5208 15.1627C50.1631 15.1627 49.8732 15.4574 49.8732 15.8211V50.1193C49.8732 50.483 50.1631 50.7778 50.5208 50.7778H61.0073C61.365 50.7778 61.6549 50.483 61.6549 50.1193V15.8211C61.6549 15.4574 61.365 15.1627 61.0073 15.1627H50.5208Z" fill="#FF9A00"/>
<path d="M55.6953 12.2707C59.3487 12.2707 62 9.75187 62 6.26671C61.9205 2.7078 59.3562 0.222198 55.7642 0.222198C53.9305 0.222198 52.3022 0.865394 51.1794 2.03379C50.1258 3.12948 49.5643 4.63765 49.597 6.28146C49.5636 7.87311 50.1263 9.35415 51.1822 10.4535C52.3076 11.6254 53.9105 12.2707 55.6953 12.2707Z" fill="#FF9A00"/>
</svg>
