<svg width="65" height="51" viewBox="0 0 65 51" fill="none" xmlns="http://www.w3.org/2000/svg">
<path d="M6.64301 50.081H17.122C17.4772 50.081 17.765 49.7932 17.765 49.438V3.27417C17.765 2.91897 17.4772 2.63116 17.122 2.63116H6.64301C6.28781 2.63116 6 2.91897 6 3.27417V49.438C6 49.7932 6.28781 50.081 6.64301 50.081Z" fill="#FF3366"/>
<path d="M38.0102 50.8343C42.1902 50.8343 45.8649 49.1232 48.1434 46.1862L48.4655 49.5002C48.4976 49.8297 48.7744 50.081 49.1054 50.081H58.3516C58.3536 50.081 58.3557 50.081 58.3567 50.081C58.7119 50.081 58.9997 49.7932 58.9997 49.438C58.9997 49.3968 58.9961 49.357 58.9887 49.3179C58.8549 47.0637 58.7214 43.164 58.7214 39.4379V0.808382C58.7214 0.453185 58.4336 0.165375 58.0784 0.165375H47.6674C47.3122 0.165375 47.0243 0.453185 47.0243 0.808382V17.3445C45.1632 15.5513 42.2244 14.5487 38.6948 14.5487C34.7082 14.5487 30.9713 16.0994 28.1722 18.9155C24.7874 22.3211 23.017 27.1925 23.0523 32.9994C23.0523 43.3338 29.3427 50.8343 38.0102 50.8343ZM41.3659 41.2607C37.3687 41.2607 34.8857 37.9642 34.8857 32.6573C34.8857 28.5621 36.6012 23.7797 41.4348 23.7797C44.4966 23.7797 46.3808 26.0871 46.8963 28.3831C46.959 28.8903 47.0243 29.6043 47.0243 30.1226V34.5061C47.0243 35.4238 46.949 36.0899 46.7731 36.7335C46.7695 36.7461 46.7666 36.7587 46.7635 36.7715C46.2021 39.4567 44.0328 41.2607 41.3659 41.2607Z" fill="#FF3366"/>
</svg>
