<svg width="71" height="71" viewBox="0 0 71 71" fill="none" xmlns="http://www.w3.org/2000/svg">
<path d="M66.6423 54.0238L36.8694 70.7338C36.2371 71.0888 35.466 71.0888 34.8337 70.7338L5.06084 54.0238C3.645 53.2306 3.64777 51.188 5.06084 50.3962L12.4659 46.2402L32.798 57.6515C34.6942 58.7169 37.0117 58.7152 38.9051 57.6515L59.2372 46.2402L66.6423 50.3962C68.0581 51.1894 68.0553 53.232 66.6423 54.0238Z" fill="#F05A2C" fill-opacity="0.51"/>
<path d="M66.6423 33.6862L59.2372 29.5302L38.9051 40.9415C37.0122 42.0051 34.6936 42.0065 32.798 40.9415L12.4659 29.5302L5.06084 33.6862C3.64777 34.478 3.645 36.5207 5.06084 37.3139L34.8337 54.0238C35.466 54.3788 36.2371 54.3788 36.8694 54.0238L66.6423 37.3139C68.0553 36.522 68.0581 34.4794 66.6423 33.6862ZM17.4637 40.0512C16.3141 40.0512 15.3836 39.1194 15.3836 37.9712C15.3836 36.8216 16.3141 35.8911 17.4637 35.8911C18.6119 35.8911 19.5437 36.8216 19.5437 37.9712C19.5437 39.1194 18.6119 40.0512 17.4637 40.0512ZM26.3206 45.2029C25.171 45.2029 24.2405 44.271 24.2405 43.1228C24.2405 41.9732 25.171 41.0428 26.3206 41.0428C27.4688 41.0428 28.4007 41.9732 28.4007 43.1228C28.4007 44.271 27.4688 45.2029 26.3206 45.2029ZM35.8515 50.0287C34.7033 50.0287 33.7715 49.0982 33.7715 47.9486C33.7715 46.8004 34.7033 45.8685 35.8515 45.8685C36.9997 45.8685 37.9316 46.8004 37.9316 47.9486C37.9316 49.0982 36.9997 50.0287 35.8515 50.0287ZM45.3825 45.2029C44.2343 45.2029 43.3024 44.271 43.3024 43.1228C43.3024 41.9732 44.2343 41.0428 45.3825 41.0428C46.5321 41.0428 47.4625 41.9732 47.4625 43.1228C47.4625 44.271 46.5321 45.2029 45.3825 45.2029ZM54.2394 40.0512C53.0912 40.0512 52.1594 39.1194 52.1594 37.9712C52.1594 36.8216 53.0912 35.8911 54.2394 35.8911C55.389 35.8911 56.3195 36.8216 56.3195 37.9712C56.3195 39.1194 55.389 40.0512 54.2394 40.0512Z" fill="#F05A2C" fill-opacity="0.51"/>
<path d="M66.6423 20.6039L36.8694 37.3138C36.2369 37.6688 35.466 37.6688 34.8337 37.3138L5.06084 20.6039C3.645 19.8107 3.64777 17.768 5.06084 16.9762L34.8337 0.26625C35.4662 -0.08875 36.2371 -0.08875 36.8694 0.26625L66.6423 16.9762C68.0581 17.7694 68.0553 19.8121 66.6423 20.6039Z" fill="#F05A2C" fill-opacity="0.51"/>
</svg>
