<svg width="73" height="73" viewBox="0 0 73 73" fill="none" xmlns="http://www.w3.org/2000/svg">
<path d="M67.2339 8.48507C63.8165 5.07935 59.0067 3.2793 53.3242 3.2793C45.5598 3.2793 40.6565 6.98187 37.9102 10.088C37.4095 10.6544 36.9628 11.2191 36.5646 11.7677C36.1825 11.2258 35.7531 10.6689 35.2697 10.1102C32.5713 6.99413 27.6758 3.2793 19.6758 3.2793C13.9933 3.2793 9.18348 5.07935 5.76606 8.48507C1.93984 12.2985 0 17.8707 0 25.0464C0 32.0121 4.07406 40.3697 12.1097 49.8867C18.2377 57.1454 25.7237 63.86 30.6866 67.7241C32.3981 69.0568 34.4488 69.7229 36.5 69.7229C38.5507 69.7229 40.6019 69.0563 42.3134 67.7241C43.9647 66.4386 47.3515 63.6973 51.4813 59.7853C52.6247 58.7026 52.6737 56.8976 51.5904 55.7542C50.5072 54.6108 48.7027 54.5623 47.5593 55.645C43.6038 59.3916 40.3802 62.0014 38.8097 63.2239C37.4496 64.2827 35.5504 64.2832 34.1903 63.2239C29.4546 59.5369 22.3124 53.131 16.4672 46.2081C9.42519 37.8673 5.70312 30.5501 5.70312 25.0464C5.70312 11.7694 13.3015 8.98242 19.6758 8.98242C29.8183 8.98242 33.1283 16.8337 33.683 18.3865C34.0762 19.8184 35.0686 20.8164 36.5 20.8164C37.9091 20.8164 38.9238 19.8184 39.307 18.4505C39.9436 16.8342 43.5387 8.98242 53.3242 8.98242C59.6985 8.98242 67.2969 11.7694 67.2969 25.0464C67.2969 30.3652 63.8238 37.2524 56.9744 45.5164C55.9697 46.7289 56.1379 48.5261 57.3504 49.5314C57.8823 49.9725 58.5272 50.1875 59.1683 50.1875C59.9881 50.1875 60.8018 49.8361 61.3654 49.1555C69.1944 39.7102 73 31.8239 73 25.0464C73 17.8707 71.0602 12.2985 67.2339 8.48507Z" fill="#F4A58A"/>
<path d="M17 52L7.5 39.5L3.5 26.5V16L12.5 8L23 5.5L33 12.5L37 16L42 12.5L52.5 6.5L61 8L66.5 12.5L70.5 24C69.8333 28.8333 67.8 39.7 65 44.5C62.2 49.3 52.5 58.8333 48 63L42 67L33 66L17 52Z" fill="#F4A58A"/>
<path d="M31.0269 52.1112L34.8587 41.4902H29.1305C26.9239 41.4902 25.5304 39.1505 26.6042 37.2368L33.1745 25.5215H38.2349H43.2953L38.0778 33.9336H44.6815C46.4749 33.9336 47.4184 36.0455 46.2499 37.3967L32.7885 52.7968C32.5446 53.0396 32.1748 53.18 31.825 53.1816C31.326 53.1839 30.9372 52.9171 30.9395 52.4688C30.94 52.3607 30.9673 52.2415 31.0269 52.1112Z" fill="#F9F4EC"/>
</svg>
