<svg width="65" height="51" viewBox="0 0 65 51" fill="none" xmlns="http://www.w3.org/2000/svg">
<path d="M12.0518 49.2439V32.8871C12.9242 32.9721 13.9531 33.0163 15.0761 33.0163C21.9202 33.0163 27.4538 31.211 31.0809 27.7935C34.0519 24.9709 35.6888 20.7657 35.6888 15.9531C35.6888 11.2788 33.7339 7.05227 30.3286 4.35953C26.981 1.68198 22.0617 0.380127 15.2896 0.380127C9.42326 0.380127 4.46613 0.717586 0.554701 1.38344C0.234302 1.43755 0 1.7153 0 2.04023V49.2439C0 49.6121 0.298275 49.9103 0.666388 49.9103H11.3854C11.7535 49.9103 12.0518 49.6121 12.0518 49.2439ZM12.0518 23.2111V10.1675C12.7061 10.0419 13.9352 9.87589 15.8568 9.87589C20.8017 9.87589 23.6376 12.1944 23.6376 16.2367C23.6376 20.7084 20.4109 23.3785 15.0052 23.3785C13.7084 23.3785 12.7848 23.3273 12.0518 23.2111Z" fill="#31A8FF"/>
<path d="M55.1129 27.391C50.6966 25.8455 49.9516 25.1095 49.9516 24.0449C49.9516 22.1542 52.1131 21.8719 53.4022 21.8719C56.1392 21.8719 58.9942 22.8987 60.6074 23.7778C60.7881 23.8762 61.003 23.8858 61.192 23.8039C61.3799 23.7218 61.5204 23.5576 61.5715 23.3588L63.4883 15.9062C63.5664 15.602 63.4217 15.2846 63.141 15.1443C61.1512 14.1496 57.4549 13.0863 53.0468 13.0863C44.3374 13.0863 38.2546 18.0306 38.2546 25.0986C38.1957 28.547 39.9385 33.2682 48.577 36.1761C52.7731 37.575 53.2324 38.3019 53.2324 39.5192C53.2324 40.0742 53.2324 41.7631 49.285 41.7631C46.3278 41.7631 42.3353 40.4498 40.3319 39.2332C40.1501 39.1231 39.9278 39.1058 39.7316 39.1868C39.536 39.2676 39.3902 39.4368 39.339 39.6426L37.4227 47.3802C37.3497 47.6753 37.4856 47.9821 37.7527 48.1265C40.6843 49.7109 44.8879 50.6199 49.285 50.6199C58.9782 50.6199 64.9997 46.0671 64.9997 38.7294C64.9229 33.2141 61.8725 29.7169 55.1129 27.391Z" fill="#31A8FF"/>
</svg>
