<svg width="65" height="51" viewBox="0 0 65 51" fill="none" xmlns="http://www.w3.org/2000/svg">
<path d="M22.5625 20.5324H19.25V27.1574H22.5625C24.3877 27.1574 25.875 25.6701 25.875 23.8449C25.875 22.0197 24.3877 20.5324 22.5625 20.5324Z" fill="#D24726"/>
<path d="M57.3438 7.28238H35.8125V2.31363C35.8125 1.82007 35.5939 1.35301 35.2129 1.03832C34.8353 0.723633 34.3285 0.587821 33.8515 0.687196L7.3515 5.65595C6.56644 5.8017 6 6.48407 6 7.28238V43.7199C6 44.5149 6.56644 45.2006 7.3515 45.3463L33.8515 50.3151C33.9509 50.3349 34.0536 50.3449 34.1562 50.3449C34.5405 50.3449 34.9148 50.2124 35.2129 49.9639C35.5939 49.6493 35.8125 49.1789 35.8125 48.6886V43.7199H57.3438C58.258 43.7199 59 42.9779 59 42.0636V8.93863C59 8.02438 58.258 7.28238 57.3438 7.28238ZM22.5625 30.4699H19.25V35.4386C19.25 36.3529 18.508 37.0949 17.5938 37.0949C16.6795 37.0949 15.9375 36.3529 15.9375 35.4386V18.8761C15.9375 17.9619 16.6795 17.2199 17.5938 17.2199H22.5625C26.2162 17.2199 29.1875 20.1912 29.1875 23.8449C29.1875 27.4986 26.2162 30.4699 22.5625 30.4699ZM55.6875 40.4074H35.8125V37.0949H50.7188C51.633 37.0949 52.375 36.3529 52.375 35.4386C52.375 34.5244 51.633 33.7824 50.7188 33.7824H35.8125V22.1886V10.5949H55.6875V40.4074Z" fill="#D24726"/>
<path d="M42.4375 23.8449V14.073C38.6579 14.8415 35.8125 18.1838 35.8125 22.1886C35.8125 26.7632 39.5192 30.4699 44.0937 30.4699C48.0986 30.4699 51.4409 27.6244 52.2094 23.8449H42.4375V23.8449Z" fill="#D24726"/>
<path d="M45.75 14.073V20.5324H52.2094C51.5502 17.2894 48.9929 14.7322 45.75 14.073Z" fill="#D24726"/>
</svg>
