<svg width="65" height="51" viewBox="0 0 65 51" fill="none" xmlns="http://www.w3.org/2000/svg">
<path d="M0.30481 50.0862V0.814021C0.30481 0.478836 0.449003 0.287301 0.785454 0.287301C1.60255 0.287301 2.37158 0.287301 3.47706 0.239418C4.63061 0.191534 5.83222 0.191534 7.12996 0.14365C8.4277 0.0957667 9.82157 0.0957664 11.3116 0.0478828C12.8016 -7.31359e-07 14.2435 0 15.6854 0C19.6267 0 22.8951 0.478835 25.5867 1.48439C27.9899 2.29841 30.2009 3.63915 32.0273 5.41084C33.5654 6.94312 34.767 8.81057 35.536 10.8696C36.257 12.8807 36.6415 14.9397 36.6415 17.0944C36.6415 21.2124 35.6802 24.6121 33.7576 27.2936C31.8351 29.9751 29.1435 31.9862 26.0193 33.1354C22.7509 34.3325 19.1461 34.7635 15.2048 34.7635C14.0512 34.7635 13.2822 34.7635 12.8016 34.7156C12.3209 34.6677 11.648 34.6677 10.7348 34.6677V50.0383C10.7829 50.3735 10.5425 50.6608 10.2061 50.7087C10.158 50.7087 10.11 50.7087 10.0138 50.7087H0.881583C0.497068 50.7087 0.30481 50.5172 0.30481 50.0862ZM10.7829 9.52883V25.6177C11.4558 25.6656 12.0806 25.7135 12.6574 25.7135H15.2048C17.0793 25.7135 18.9538 25.4262 20.7322 24.8516C22.2703 24.4206 23.6161 23.5108 24.6735 22.3137C25.6828 21.1166 26.1635 19.4886 26.1635 17.3817C26.2115 15.8973 25.827 14.413 25.058 13.1201C24.2409 11.8751 23.0873 10.9174 21.6935 10.3907C19.9151 9.67248 17.9925 9.38518 16.0219 9.43306C14.7722 9.43306 13.6667 9.43306 12.7535 9.48095C11.7922 9.43306 11.1193 9.48094 10.7829 9.52883Z" fill="#9999FF"/>
<path d="M41.4885 12.2111H49.8766C50.3559 12.2111 50.7394 12.5471 50.8832 12.9791C51.027 13.363 51.1228 13.747 51.1708 14.1789C51.2666 14.6589 51.3625 15.1868 51.4104 15.6667C51.4584 16.1947 51.5063 16.7706 51.5063 17.3945C52.9443 15.7147 54.6698 14.3229 56.635 13.267C58.8399 12.0192 61.3803 11.3952 63.9207 11.3952C64.2562 11.3473 64.5438 11.5872 64.5917 11.9232C64.5917 11.9712 64.5917 12.0192 64.5917 12.1152V21.4741C64.5917 21.858 64.3521 22.002 63.8248 22.002C62.0993 21.954 60.3258 22.098 58.6482 22.4819C57.2581 22.7699 55.916 23.2019 54.6219 23.7778C53.7112 24.2097 52.8484 24.7857 52.1773 25.5536V50.0307C52.1773 50.5106 51.9856 50.7026 51.5542 50.7026H42.1116C41.7282 50.7506 41.3926 50.5106 41.3447 50.1267C41.3447 50.0787 41.3447 49.9827 41.3447 49.9347V23.3458C41.3447 22.194 41.3447 20.9941 41.2968 19.7463C41.2488 18.4984 41.2488 17.2506 41.2009 16.0027C41.2009 14.8988 41.105 13.843 41.0092 12.7391C40.9613 12.4991 41.105 12.2591 41.3447 12.2111C41.3447 12.1632 41.4406 12.1632 41.4885 12.2111Z" fill="#9999FF"/>
</svg>
