<svg width="71" height="71" viewBox="0 0 71 71" fill="none" xmlns="http://www.w3.org/2000/svg">
<path d="M65.6039 0C35.5324 0 10.7977 23.1342 8.1767 52.534C13.1733 45.4873 19.2942 38.7068 26.9355 30.9116C27.5035 30.3259 28.4443 30.3141 29.0271 30.891C29.61 31.4619 29.6188 32.3997 29.0478 32.9826C27.897 34.154 26.7285 35.3699 25.554 36.6006C24.8824 37.3018 24.2256 38 23.5808 38.6863C23.4625 38.8134 23.3441 38.9407 23.2258 39.0708C13.7828 49.1823 7.03183 57.9833 2.12978 68.9144C1.79544 69.6599 2.12978 70.5356 2.87236 70.8698C3.07053 70.9585 3.27465 71 3.47878 71C4.04386 71 4.58524 70.6745 4.83069 70.1273C6.57615 66.2372 8.60256 62.628 10.8805 59.1164C31.5415 58.5868 50.3476 47.0937 60.2049 28.8053C60.4505 28.3468 60.4385 27.7936 60.1723 27.3439C59.9031 26.9001 59.4208 26.625 58.9002 26.625H53.4215L63.2461 21.01C63.5567 20.8325 63.7963 20.5456 63.9117 20.2084C66.018 14.0846 67.083 7.78337 67.083 1.47921C67.083 0.662713 66.4204 0 65.6039 0Z" fill="#F05A2C" fill-opacity="0.51"/>
</svg>
