<svg width="65" height="51" viewBox="0 0 65 51" fill="none" xmlns="http://www.w3.org/2000/svg">
<path d="M28.5156 10.6773V10.5522C28.5156 9.18717 27.9841 7.9042 27.0183 6.93839C26.1417 6.06103 24.9751 5.57812 23.7344 5.57812C22.5391 5.57812 21.4123 6.02677 20.5469 6.84436C19.6815 6.02677 18.5547 5.57812 17.3594 5.57812C16.1186 5.57812 14.952 6.06103 14.0755 6.93839C13.1096 7.9042 12.5781 9.18717 12.5781 10.5522V10.6773C12.5781 12.2217 13.2403 13.6959 14.3942 14.7215L20.5469 20.1912L26.6987 14.7223C27.8534 13.6967 28.5156 12.2225 28.5156 10.6773V10.6773ZM20.5469 18.0588L15.4532 13.5309C14.6388 12.8074 14.1719 11.7675 14.1719 10.6773V10.5522C14.1719 9.6127 14.5376 8.72977 15.2022 8.06517C15.7784 7.48903 16.545 7.17187 17.3594 7.17187C18.1738 7.17187 18.9404 7.48903 19.5165 8.06517L20.5469 9.09553L21.5772 8.06517C22.7295 6.91369 24.7392 6.91369 25.8915 8.06517C26.5561 8.72977 26.9219 9.6127 26.9219 10.5522V10.6773C26.9219 11.7667 26.4549 12.8074 25.6405 13.5309L20.5469 18.0588Z" fill="#46C725"/>
<path d="M54.8125 7.17188H33.2969V3.1875C33.2969 1.86947 32.2243 0.796875 30.9062 0.796875H10.1875C8.86947 0.796875 7.79688 1.86947 7.79688 3.1875V20.7188C7.79688 22.0368 8.86947 23.1094 10.1875 23.1094H16.9864L18.3148 24.7031H11.7812C10.4632 24.7031 9.39062 25.7757 9.39062 27.0938V43.0312C9.39062 44.3493 10.4632 45.4219 11.7812 45.4219H20.1739L23.5941 49.5258C23.9527 49.9561 24.4795 50.2031 25.0397 50.2031C26.0772 50.2031 26.9219 49.3584 26.9219 48.3209V45.4219H35.6875C37.0055 45.4219 38.0781 44.3493 38.0781 43.0312V29.4844H39.6719V32.3834C39.6719 33.4209 40.5166 34.2656 41.5541 34.2656C42.1143 34.2656 42.641 34.0186 42.9996 33.5883L46.4198 29.4844H54.8125C56.1305 29.4844 57.2031 28.4118 57.2031 27.0938V9.5625C57.2031 8.24447 56.1305 7.17188 54.8125 7.17188ZM10.1875 21.5156C9.74842 21.5156 9.39062 21.1586 9.39062 20.7188V3.1875C9.39062 2.74763 9.74842 2.39062 10.1875 2.39062H30.9062C31.3453 2.39062 31.7031 2.74763 31.7031 3.1875V20.7188C31.7031 21.1586 31.3453 21.5156 30.9062 21.5156H22.1406V26.0084C22.1406 26.2546 21.7884 26.3821 21.6306 26.1925L17.7323 21.5156H10.1875ZM28.5156 24.7031H23.7344V23.1094H28.5156V24.7031ZM36.4844 43.0312C36.4844 43.4711 36.1266 43.8281 35.6875 43.8281H25.3281V48.3209C25.3281 48.5671 24.9759 48.6946 24.8181 48.505L20.9198 43.8281H11.7812C11.3422 43.8281 10.9844 43.4711 10.9844 43.0312V27.0938C10.9844 26.6539 11.3422 26.2969 11.7812 26.2969H19.6424L20.4066 27.2133C20.7652 27.6436 21.292 27.8906 21.8522 27.8906C22.7909 27.8906 23.5646 27.1973 23.7049 26.2969H28.5156V27.0938C28.5156 28.4118 29.5882 29.4844 30.9062 29.4844H36.4844V43.0312ZM55.6094 27.0938C55.6094 27.5336 55.2516 27.8906 54.8125 27.8906H45.6739L41.7756 32.5675C41.6178 32.7555 41.2656 32.6288 41.2656 32.3834V27.8906H30.9062C30.4672 27.8906 30.1094 27.5336 30.1094 27.0938V23.1094H30.9062C32.2243 23.1094 33.2969 22.0368 33.2969 20.7188V8.76562H54.8125C55.2516 8.76562 55.6094 9.12263 55.6094 9.5625V27.0938Z" fill="#46C725"/>
<path d="M26.9219 34.2656C26.9219 34.7382 27.0318 35.1828 27.2167 35.586C26.8733 35.2816 26.4908 35.0219 26.0772 34.8155C26.5968 34.2481 26.9219 33.4998 26.9219 32.6719C26.9219 30.914 25.4923 29.4844 23.7344 29.4844C21.9765 29.4844 20.5469 30.914 20.5469 32.6719C20.5469 33.4998 20.872 34.2481 21.3916 34.8155C20.978 35.0219 20.5955 35.2816 20.252 35.586C20.4369 35.1828 20.5469 34.7382 20.5469 34.2656C20.5469 32.5077 19.1173 31.0781 17.3594 31.0781C15.6015 31.0781 14.1719 32.5077 14.1719 34.2656C14.1719 35.1151 14.5105 35.8825 15.054 36.4546C13.5798 37.2698 12.5781 38.8397 12.5781 40.6406V42.2344H14.1719V40.6406C14.1719 38.8827 15.6015 37.4531 17.3594 37.4531C17.8614 37.4531 18.3427 37.5727 18.781 37.7918C18.6551 38.156 18.5627 38.5369 18.518 38.9345L18.161 42.1459L19.7444 42.322L20.1014 39.1106C20.3078 37.2571 21.8697 35.8594 23.7344 35.8594C25.5991 35.8594 27.1609 37.2571 27.3673 39.1106L27.7243 42.322L29.3077 42.1459L28.9507 38.9345C28.9069 38.5369 28.8137 38.156 28.6877 37.7918C29.126 37.5727 29.6073 37.4531 30.1094 37.4531C31.8673 37.4531 33.2969 38.8827 33.2969 40.6406V42.2344H34.8906V40.6406C34.8906 38.8397 33.889 37.2698 32.4147 36.4546C32.9582 35.8825 33.2969 35.1151 33.2969 34.2656C33.2969 32.5077 31.8673 31.0781 30.1094 31.0781C28.3515 31.0781 26.9219 32.5077 26.9219 34.2656ZM15.7656 34.2656C15.7656 33.3867 16.4804 32.6719 17.3594 32.6719C18.2383 32.6719 18.9531 33.3867 18.9531 34.2656C18.9531 35.1446 18.2383 35.8594 17.3594 35.8594C16.4804 35.8594 15.7656 35.1446 15.7656 34.2656ZM22.1406 32.6719C22.1406 31.7929 22.8554 31.0781 23.7344 31.0781C24.6133 31.0781 25.3281 31.7929 25.3281 32.6719C25.3281 33.5508 24.6133 34.2656 23.7344 34.2656C22.8554 34.2656 22.1406 33.5508 22.1406 32.6719ZM31.7031 34.2656C31.7031 35.1446 30.9883 35.8594 30.1094 35.8594C29.2304 35.8594 28.5156 35.1446 28.5156 34.2656C28.5156 33.3867 29.2304 32.6719 30.1094 32.6719C30.9883 32.6719 31.7031 33.3867 31.7031 34.2656Z" fill="#46C725"/>
<path d="M49.2344 15.1406H47.7841L47.9761 13.9899C48.1267 13.0839 47.8733 12.1627 47.2796 11.4622C46.686 10.761 45.819 10.3594 44.901 10.3594C43.8021 10.3594 42.8482 11.1045 42.5813 12.1699C42.2928 13.3253 41.6951 14.3804 40.8528 15.2235L40.6178 15.4586C40.3524 15.2618 40.0273 15.1406 39.6719 15.1406H36.4844C35.6054 15.1406 34.8906 15.8554 34.8906 16.7344V24.7031C34.8906 25.5821 35.6054 26.2969 36.4844 26.2969H39.6719C40.3675 26.2969 40.9533 25.8466 41.1708 25.2243C42.5845 25.9255 44.1376 26.2969 45.7321 26.2969H49.2344C50.9923 26.2969 52.4219 24.8673 52.4219 23.1094V18.3281C52.4219 16.5702 50.9923 15.1406 49.2344 15.1406ZM36.4844 24.7031V16.7344H39.6719L39.6727 24.7031H36.4844ZM50.8281 23.1094C50.8281 23.9883 50.1133 24.7031 49.2344 24.7031H45.7321C44.1503 24.7031 42.6163 24.272 41.2656 23.4616V17.0643L41.9796 16.3503C43.0259 15.304 43.7694 13.9915 44.128 12.5564C44.2165 12.2017 44.5344 11.9531 44.901 11.9531C45.3496 11.9531 45.7735 12.1492 46.0636 12.4926C46.3537 12.8353 46.478 13.2855 46.4039 13.7286L45.9034 16.7344H49.2344C50.1133 16.7344 50.8281 17.4492 50.8281 18.3281V23.1094Z" fill="#46C725"/>
<path d="M28.5156 10.6773V10.5522C28.5156 9.18717 27.9841 7.9042 27.0183 6.93839C26.1417 6.06103 24.9751 5.57812 23.7344 5.57812C22.5391 5.57812 21.4123 6.02677 20.5469 6.84436C19.6815 6.02677 18.5547 5.57812 17.3594 5.57812C16.1186 5.57812 14.952 6.06103 14.0755 6.93839C13.1096 7.9042 12.5781 9.18717 12.5781 10.5522V10.6773C12.5781 12.2217 13.2403 13.6959 14.3942 14.7215L20.5469 20.1912L26.6987 14.7223C27.8534 13.6967 28.5156 12.2225 28.5156 10.6773V10.6773ZM20.5469 18.0588L15.4532 13.5309C14.6388 12.8074 14.1719 11.7675 14.1719 10.6773V10.5522C14.1719 9.6127 14.5376 8.72977 15.2022 8.06517C15.7784 7.48903 16.545 7.17187 17.3594 7.17187C18.1738 7.17187 18.9404 7.48903 19.5165 8.06517L20.5469 9.09553L21.5772 8.06517C22.7295 6.91369 24.7392 6.91369 25.8915 8.06517C26.5561 8.72977 26.9219 9.6127 26.9219 10.5522V10.6773C26.9219 11.7667 26.4549 12.8074 25.6405 13.5309L20.5469 18.0588Z" fill="#46C725"/>
<path d="M54.8125 7.17188H33.2969V3.1875C33.2969 1.86947 32.2243 0.796875 30.9062 0.796875H10.1875C8.86947 0.796875 7.79688 1.86947 7.79688 3.1875V20.7188C7.79688 22.0368 8.86947 23.1094 10.1875 23.1094H16.9864L18.3148 24.7031H11.7812C10.4632 24.7031 9.39062 25.7757 9.39062 27.0938V43.0312C9.39062 44.3493 10.4632 45.4219 11.7812 45.4219H20.1739L23.5941 49.5258C23.9527 49.9561 24.4795 50.2031 25.0397 50.2031C26.0772 50.2031 26.9219 49.3584 26.9219 48.3209V45.4219H35.6875C37.0055 45.4219 38.0781 44.3493 38.0781 43.0312V29.4844H39.6719V32.3834C39.6719 33.4209 40.5166 34.2656 41.5541 34.2656C42.1143 34.2656 42.641 34.0186 42.9996 33.5883L46.4198 29.4844H54.8125C56.1305 29.4844 57.2031 28.4118 57.2031 27.0938V9.5625C57.2031 8.24447 56.1305 7.17188 54.8125 7.17188ZM10.1875 21.5156C9.74842 21.5156 9.39062 21.1586 9.39062 20.7188V3.1875C9.39062 2.74763 9.74842 2.39062 10.1875 2.39062H30.9062C31.3453 2.39062 31.7031 2.74763 31.7031 3.1875V20.7188C31.7031 21.1586 31.3453 21.5156 30.9062 21.5156H22.1406V26.0084C22.1406 26.2546 21.7884 26.3821 21.6306 26.1925L17.7323 21.5156H10.1875ZM28.5156 24.7031H23.7344V23.1094H28.5156V24.7031ZM36.4844 43.0312C36.4844 43.4711 36.1266 43.8281 35.6875 43.8281H25.3281V48.3209C25.3281 48.5671 24.9759 48.6946 24.8181 48.505L20.9198 43.8281H11.7812C11.3422 43.8281 10.9844 43.4711 10.9844 43.0312V27.0938C10.9844 26.6539 11.3422 26.2969 11.7812 26.2969H19.6424L20.4066 27.2133C20.7652 27.6436 21.292 27.8906 21.8522 27.8906C22.7909 27.8906 23.5646 27.1973 23.7049 26.2969H28.5156V27.0938C28.5156 28.4118 29.5882 29.4844 30.9062 29.4844H36.4844V43.0312ZM55.6094 27.0938C55.6094 27.5336 55.2516 27.8906 54.8125 27.8906H45.6739L41.7756 32.5675C41.6178 32.7555 41.2656 32.6288 41.2656 32.3834V27.8906H30.9062C30.4672 27.8906 30.1094 27.5336 30.1094 27.0938V23.1094H30.9062C32.2243 23.1094 33.2969 22.0368 33.2969 20.7188V8.76562H54.8125C55.2516 8.76562 55.6094 9.12263 55.6094 9.5625V27.0938Z" fill="#46C725"/>
<path d="M26.9219 34.2656C26.9219 34.7382 27.0318 35.1828 27.2167 35.586C26.8733 35.2816 26.4908 35.0219 26.0772 34.8155C26.5968 34.2481 26.9219 33.4998 26.9219 32.6719C26.9219 30.914 25.4923 29.4844 23.7344 29.4844C21.9765 29.4844 20.5469 30.914 20.5469 32.6719C20.5469 33.4998 20.872 34.2481 21.3916 34.8155C20.978 35.0219 20.5955 35.2816 20.252 35.586C20.4369 35.1828 20.5469 34.7382 20.5469 34.2656C20.5469 32.5077 19.1173 31.0781 17.3594 31.0781C15.6015 31.0781 14.1719 32.5077 14.1719 34.2656C14.1719 35.1151 14.5105 35.8825 15.054 36.4546C13.5798 37.2698 12.5781 38.8397 12.5781 40.6406V42.2344H14.1719V40.6406C14.1719 38.8827 15.6015 37.4531 17.3594 37.4531C17.8614 37.4531 18.3427 37.5727 18.781 37.7918C18.6551 38.156 18.5627 38.5369 18.518 38.9345L18.161 42.1459L19.7444 42.322L20.1014 39.1106C20.3078 37.2571 21.8697 35.8594 23.7344 35.8594C25.5991 35.8594 27.1609 37.2571 27.3673 39.1106L27.7243 42.322L29.3077 42.1459L28.9507 38.9345C28.9069 38.5369 28.8137 38.156 28.6877 37.7918C29.126 37.5727 29.6073 37.4531 30.1094 37.4531C31.8673 37.4531 33.2969 38.8827 33.2969 40.6406V42.2344H34.8906V40.6406C34.8906 38.8397 33.889 37.2698 32.4147 36.4546C32.9582 35.8825 33.2969 35.1151 33.2969 34.2656C33.2969 32.5077 31.8673 31.0781 30.1094 31.0781C28.3515 31.0781 26.9219 32.5077 26.9219 34.2656ZM15.7656 34.2656C15.7656 33.3867 16.4804 32.6719 17.3594 32.6719C18.2383 32.6719 18.9531 33.3867 18.9531 34.2656C18.9531 35.1446 18.2383 35.8594 17.3594 35.8594C16.4804 35.8594 15.7656 35.1446 15.7656 34.2656ZM22.1406 32.6719C22.1406 31.7929 22.8554 31.0781 23.7344 31.0781C24.6133 31.0781 25.3281 31.7929 25.3281 32.6719C25.3281 33.5508 24.6133 34.2656 23.7344 34.2656C22.8554 34.2656 22.1406 33.5508 22.1406 32.6719ZM31.7031 34.2656C31.7031 35.1446 30.9883 35.8594 30.1094 35.8594C29.2304 35.8594 28.5156 35.1446 28.5156 34.2656C28.5156 33.3867 29.2304 32.6719 30.1094 32.6719C30.9883 32.6719 31.7031 33.3867 31.7031 34.2656Z" fill="#46C725"/>
<path d="M49.2344 15.1406H47.7841L47.9761 13.9899C48.1267 13.0839 47.8733 12.1627 47.2796 11.4622C46.686 10.761 45.819 10.3594 44.901 10.3594C43.8021 10.3594 42.8482 11.1045 42.5813 12.1699C42.2928 13.3253 41.6951 14.3804 40.8528 15.2235L40.6178 15.4586C40.3524 15.2618 40.0273 15.1406 39.6719 15.1406H36.4844C35.6054 15.1406 34.8906 15.8554 34.8906 16.7344V24.7031C34.8906 25.5821 35.6054 26.2969 36.4844 26.2969H39.6719C40.3675 26.2969 40.9533 25.8466 41.1708 25.2243C42.5845 25.9255 44.1376 26.2969 45.7321 26.2969H49.2344C50.9923 26.2969 52.4219 24.8673 52.4219 23.1094V18.3281C52.4219 16.5702 50.9923 15.1406 49.2344 15.1406ZM36.4844 24.7031V16.7344H39.6719L39.6727 24.7031H36.4844ZM50.8281 23.1094C50.8281 23.9883 50.1133 24.7031 49.2344 24.7031H45.7321C44.1503 24.7031 42.6163 24.272 41.2656 23.4616V17.0643L41.9796 16.3503C43.0259 15.304 43.7694 13.9915 44.128 12.5564C44.2165 12.2017 44.5344 11.9531 44.901 11.9531C45.3496 11.9531 45.7735 12.1492 46.0636 12.4926C46.3537 12.8353 46.478 13.2855 46.4039 13.7286L45.9034 16.7344H49.2344C50.1133 16.7344 50.8281 17.4492 50.8281 18.3281V23.1094Z" fill="#46C725"/>
<path d="M28.5156 10.6773V10.5522C28.5156 9.18717 27.9841 7.9042 27.0183 6.93839C26.1417 6.06103 24.9751 5.57812 23.7344 5.57812C22.5391 5.57812 21.4123 6.02677 20.5469 6.84436C19.6815 6.02677 18.5547 5.57812 17.3594 5.57812C16.1186 5.57812 14.952 6.06103 14.0755 6.93839C13.1096 7.9042 12.5781 9.18717 12.5781 10.5522V10.6773C12.5781 12.2217 13.2403 13.6959 14.3942 14.7215L20.5469 20.1912L26.6987 14.7223C27.8534 13.6967 28.5156 12.2225 28.5156 10.6773V10.6773ZM20.5469 18.0588L15.4532 13.5309C14.6388 12.8074 14.1719 11.7675 14.1719 10.6773V10.5522C14.1719 9.6127 14.5376 8.72977 15.2022 8.06517C15.7784 7.48903 16.545 7.17187 17.3594 7.17187C18.1738 7.17187 18.9404 7.48903 19.5165 8.06517L20.5469 9.09553L21.5772 8.06517C22.7295 6.91369 24.7392 6.91369 25.8915 8.06517C26.5561 8.72977 26.9219 9.6127 26.9219 10.5522V10.6773C26.9219 11.7667 26.4549 12.8074 25.6405 13.5309L20.5469 18.0588Z" fill="#46C725"/>
<path d="M54.8125 7.17188H33.2969V3.1875C33.2969 1.86947 32.2243 0.796875 30.9062 0.796875H10.1875C8.86947 0.796875 7.79688 1.86947 7.79688 3.1875V20.7188C7.79688 22.0368 8.86947 23.1094 10.1875 23.1094H16.9864L18.3148 24.7031H11.7812C10.4632 24.7031 9.39062 25.7757 9.39062 27.0938V43.0312C9.39062 44.3493 10.4632 45.4219 11.7812 45.4219H20.1739L23.5941 49.5258C23.9527 49.9561 24.4795 50.2031 25.0397 50.2031C26.0772 50.2031 26.9219 49.3584 26.9219 48.3209V45.4219H35.6875C37.0055 45.4219 38.0781 44.3493 38.0781 43.0312V29.4844H39.6719V32.3834C39.6719 33.4209 40.5166 34.2656 41.5541 34.2656C42.1143 34.2656 42.641 34.0186 42.9996 33.5883L46.4198 29.4844H54.8125C56.1305 29.4844 57.2031 28.4118 57.2031 27.0938V9.5625C57.2031 8.24447 56.1305 7.17188 54.8125 7.17188ZM10.1875 21.5156C9.74842 21.5156 9.39062 21.1586 9.39062 20.7188V3.1875C9.39062 2.74763 9.74842 2.39062 10.1875 2.39062H30.9062C31.3453 2.39062 31.7031 2.74763 31.7031 3.1875V20.7188C31.7031 21.1586 31.3453 21.5156 30.9062 21.5156H22.1406V26.0084C22.1406 26.2546 21.7884 26.3821 21.6306 26.1925L17.7323 21.5156H10.1875ZM28.5156 24.7031H23.7344V23.1094H28.5156V24.7031ZM36.4844 43.0312C36.4844 43.4711 36.1266 43.8281 35.6875 43.8281H25.3281V48.3209C25.3281 48.5671 24.9759 48.6946 24.8181 48.505L20.9198 43.8281H11.7812C11.3422 43.8281 10.9844 43.4711 10.9844 43.0312V27.0938C10.9844 26.6539 11.3422 26.2969 11.7812 26.2969H19.6424L20.4066 27.2133C20.7652 27.6436 21.292 27.8906 21.8522 27.8906C22.7909 27.8906 23.5646 27.1973 23.7049 26.2969H28.5156V27.0938C28.5156 28.4118 29.5882 29.4844 30.9062 29.4844H36.4844V43.0312ZM55.6094 27.0938C55.6094 27.5336 55.2516 27.8906 54.8125 27.8906H45.6739L41.7756 32.5675C41.6178 32.7555 41.2656 32.6288 41.2656 32.3834V27.8906H30.9062C30.4672 27.8906 30.1094 27.5336 30.1094 27.0938V23.1094H30.9062C32.2243 23.1094 33.2969 22.0368 33.2969 20.7188V8.76562H54.8125C55.2516 8.76562 55.6094 9.12263 55.6094 9.5625V27.0938Z" fill="#46C725"/>
<path d="M26.9219 34.2656C26.9219 34.7382 27.0318 35.1828 27.2167 35.586C26.8733 35.2816 26.4908 35.0219 26.0772 34.8155C26.5968 34.2481 26.9219 33.4998 26.9219 32.6719C26.9219 30.914 25.4923 29.4844 23.7344 29.4844C21.9765 29.4844 20.5469 30.914 20.5469 32.6719C20.5469 33.4998 20.872 34.2481 21.3916 34.8155C20.978 35.0219 20.5955 35.2816 20.252 35.586C20.4369 35.1828 20.5469 34.7382 20.5469 34.2656C20.5469 32.5077 19.1173 31.0781 17.3594 31.0781C15.6015 31.0781 14.1719 32.5077 14.1719 34.2656C14.1719 35.1151 14.5105 35.8825 15.054 36.4546C13.5798 37.2698 12.5781 38.8397 12.5781 40.6406V42.2344H14.1719V40.6406C14.1719 38.8827 15.6015 37.4531 17.3594 37.4531C17.8614 37.4531 18.3427 37.5727 18.781 37.7918C18.6551 38.156 18.5627 38.5369 18.518 38.9345L18.161 42.1459L19.7444 42.322L20.1014 39.1106C20.3078 37.2571 21.8697 35.8594 23.7344 35.8594C25.5991 35.8594 27.1609 37.2571 27.3673 39.1106L27.7243 42.322L29.3077 42.1459L28.9507 38.9345C28.9069 38.5369 28.8137 38.156 28.6877 37.7918C29.126 37.5727 29.6073 37.4531 30.1094 37.4531C31.8673 37.4531 33.2969 38.8827 33.2969 40.6406V42.2344H34.8906V40.6406C34.8906 38.8397 33.889 37.2698 32.4147 36.4546C32.9582 35.8825 33.2969 35.1151 33.2969 34.2656C33.2969 32.5077 31.8673 31.0781 30.1094 31.0781C28.3515 31.0781 26.9219 32.5077 26.9219 34.2656ZM15.7656 34.2656C15.7656 33.3867 16.4804 32.6719 17.3594 32.6719C18.2383 32.6719 18.9531 33.3867 18.9531 34.2656C18.9531 35.1446 18.2383 35.8594 17.3594 35.8594C16.4804 35.8594 15.7656 35.1446 15.7656 34.2656ZM22.1406 32.6719C22.1406 31.7929 22.8554 31.0781 23.7344 31.0781C24.6133 31.0781 25.3281 31.7929 25.3281 32.6719C25.3281 33.5508 24.6133 34.2656 23.7344 34.2656C22.8554 34.2656 22.1406 33.5508 22.1406 32.6719ZM31.7031 34.2656C31.7031 35.1446 30.9883 35.8594 30.1094 35.8594C29.2304 35.8594 28.5156 35.1446 28.5156 34.2656C28.5156 33.3867 29.2304 32.6719 30.1094 32.6719C30.9883 32.6719 31.7031 33.3867 31.7031 34.2656Z" fill="#46C725"/>
<path d="M49.2344 15.1406H47.7841L47.9761 13.9899C48.1267 13.0839 47.8733 12.1627 47.2796 11.4622C46.686 10.761 45.819 10.3594 44.901 10.3594C43.8021 10.3594 42.8482 11.1045 42.5813 12.1699C42.2928 13.3253 41.6951 14.3804 40.8528 15.2235L40.6178 15.4586C40.3524 15.2618 40.0273 15.1406 39.6719 15.1406H36.4844C35.6054 15.1406 34.8906 15.8554 34.8906 16.7344V24.7031C34.8906 25.5821 35.6054 26.2969 36.4844 26.2969H39.6719C40.3675 26.2969 40.9533 25.8466 41.1708 25.2243C42.5845 25.9255 44.1376 26.2969 45.7321 26.2969H49.2344C50.9923 26.2969 52.4219 24.8673 52.4219 23.1094V18.3281C52.4219 16.5702 50.9923 15.1406 49.2344 15.1406ZM36.4844 24.7031V16.7344H39.6719L39.6727 24.7031H36.4844ZM50.8281 23.1094C50.8281 23.9883 50.1133 24.7031 49.2344 24.7031H45.7321C44.1503 24.7031 42.6163 24.272 41.2656 23.4616V17.0643L41.9796 16.3503C43.0259 15.304 43.7694 13.9915 44.128 12.5564C44.2165 12.2017 44.5344 11.9531 44.901 11.9531C45.3496 11.9531 45.7735 12.1492 46.0636 12.4926C46.3537 12.8353 46.478 13.2855 46.4039 13.7286L45.9034 16.7344H49.2344C50.1133 16.7344 50.8281 17.4492 50.8281 18.3281V23.1094Z" fill="#46C725"/>
<path d="M8.5 9V21.375L10.75 22.5H17.875L19.375 25.5H12.25L10 26.25V40.875L10.75 44.25L20.5 44.625L24.25 49.5H26.125V44.625L37 44.25V28.875H40L40.75 33H42.25L46.375 28.875H54.625L56.125 27.75V13.125V9L54.625 7.875H32.875L32.5 10.875V3.375L31.75 1.5H30.25H17.875H10.75L8.5 2.25V9Z" fill="#46C725"/>
<path d="M28.1875 10.3492V10.2241C28.1875 8.85905 27.656 7.57608 26.6902 6.61027C25.8136 5.73291 24.647 5.25 23.4063 5.25C22.2109 5.25 21.0842 5.69864 20.2188 6.51623C19.3533 5.69864 18.2266 5.25 17.0313 5.25C15.7905 5.25 14.6239 5.73291 13.7473 6.61027C12.7815 7.57608 12.25 8.85905 12.25 10.2241V10.3492C12.25 11.8935 12.9122 13.3678 14.0661 14.3933L20.2188 19.8631L26.3706 14.3941C27.5253 13.3686 28.1875 11.8943 28.1875 10.3492V10.3492ZM20.2188 17.7307L15.1251 13.2028C14.3107 12.4792 13.8438 11.4393 13.8438 10.3492V10.2241C13.8438 9.28458 14.2095 8.40164 14.8741 7.73705C15.4503 7.16091 16.2168 6.84375 17.0313 6.84375C17.8457 6.84375 18.6123 7.16091 19.1884 7.73705L20.2188 8.76741L21.2491 7.73705C22.4014 6.58556 24.4111 6.58556 25.5634 7.73705C26.228 8.40164 26.5938 9.28458 26.5938 10.2241V10.3492C26.5938 11.4385 26.1268 12.4792 25.3124 13.2028L20.2188 17.7307Z" fill="#F9F4EC"/>
<path d="M26.5937 34.0312C26.5937 34.5038 26.7037 34.9485 26.8886 35.3517C26.5451 35.0473 26.1626 34.7875 25.7491 34.5811C26.2686 34.0137 26.5937 33.2655 26.5937 32.4375C26.5937 30.6796 25.1642 29.25 23.4062 29.25C21.6483 29.25 20.2187 30.6796 20.2187 32.4375C20.2187 33.2655 20.5439 34.0137 21.0634 34.5811C20.6499 34.7875 20.2674 35.0473 19.9239 35.3517C20.1088 34.9485 20.2187 34.5038 20.2187 34.0312C20.2187 32.2733 18.7892 30.8437 17.0312 30.8437C15.2733 30.8437 13.8437 32.2733 13.8437 34.0312C13.8437 34.8807 14.1824 35.6481 14.7259 36.2203C13.2517 37.0355 12.25 38.6053 12.25 40.4062V41.7656H13.8437V40.4062C13.8437 38.6483 15.2733 37.2187 17.0312 37.2187C17.5333 37.2187 18.0146 37.3383 18.4529 37.5574C18.327 37.9216 18.2345 38.3025 18.1899 38.7001L17.9219 41.7656H19.4219L19.7733 38.8762C19.9797 37.0227 21.5416 35.625 23.4062 35.625C25.2709 35.625 26.8328 37.0227 27.0392 38.8762L27.2969 41.7656H29.1719L28.6226 38.7001C28.5788 38.3025 28.4855 37.9216 28.3596 37.5574C28.7979 37.3383 29.2792 37.2187 29.7812 37.2187C31.5392 37.2187 32.9687 38.6483 32.9687 40.4062V41.7656H34.5625V40.4062C34.5625 38.6053 33.5608 37.0355 32.0866 36.2203C32.6301 35.6481 32.9687 34.8807 32.9687 34.0312C32.9687 32.2733 31.5392 30.8437 29.7812 30.8437C28.0233 30.8437 26.5937 32.2733 26.5937 34.0312ZM15.4375 34.0312C15.4375 33.1523 16.1523 32.4375 17.0312 32.4375C17.9102 32.4375 18.625 33.1523 18.625 34.0312C18.625 34.9102 17.9102 35.625 17.0312 35.625C16.1523 35.625 15.4375 34.9102 15.4375 34.0312ZM21.8125 32.4375C21.8125 31.5585 22.5273 30.8437 23.4062 30.8437C24.2852 30.8437 25 31.5585 25 32.4375C25 33.3165 24.2852 34.0312 23.4062 34.0312C22.5273 34.0312 21.8125 33.3165 21.8125 32.4375ZM31.375 34.0312C31.375 34.9102 30.6602 35.625 29.7812 35.625C28.9023 35.625 28.1875 34.9102 28.1875 34.0312C28.1875 33.1523 28.9023 32.4375 29.7812 32.4375C30.6602 32.4375 31.375 33.1523 31.375 34.0312Z" fill="#F9F4EC"/>
<path d="M49.8438 14.5312H48.3934L48.5855 13.3806C48.7361 12.4745 48.4827 11.5533 47.889 10.8529C47.2953 10.1516 46.4283 9.75 45.5103 9.75C44.4115 9.75 43.4576 10.4951 43.1906 11.5605C42.9022 12.716 42.3045 13.771 41.4622 14.6141L41.2271 14.8492C40.9618 14.6524 40.6367 14.5312 40.2812 14.5312H37.0938C36.2148 14.5312 35.5 15.246 35.5 16.125V24.0938C35.5 24.9727 36.2148 25.6875 37.0938 25.6875H40.2812C40.9769 25.6875 41.5626 25.2373 41.7802 24.6149C43.1938 25.3162 44.7469 25.6875 46.3415 25.6875H49.8438C51.6017 25.6875 53.0312 24.2579 53.0312 22.5V17.7188C53.0312 15.9608 51.6017 14.5312 49.8438 14.5312ZM37.0938 24.0938V16.125H40.2812L40.282 24.0938H37.0938ZM51.4375 22.5C51.4375 23.379 50.7227 24.0938 49.8438 24.0938H46.3415C44.7597 24.0938 43.2257 23.6626 41.875 22.8522V16.4549L42.589 15.7409C43.6353 14.6946 44.3788 13.3822 44.7374 11.947C44.8258 11.5924 45.1438 11.3438 45.5103 11.3438C45.959 11.3438 46.3829 11.5398 46.673 11.8832C46.963 12.2259 47.0874 12.6761 47.0133 13.1192L46.5128 16.125H49.8438C50.7227 16.125 51.4375 16.8398 51.4375 17.7188V22.5Z" fill="#F9F4EC"/>
<path d="M13.7969 13.1719L18.2969 16.9219L20.1719 18.7969L26.1719 13.5469L27.6719 10.1719L25.7969 7.17188L23.5469 6.04688L20.1719 7.54688L16.0469 6.04688L13.4219 7.92188L13.0469 10.1719L13.7969 13.1719Z" fill="#F9F4EC"/>
<path d="M34.0469 41.7656H13.7969L13.4219 40.6406L14.1719 37.2656L15.2969 35.7656L14.9219 34.2656L15.2969 32.3906L17.9219 31.6406L19.0469 33.1406V35.0156L20.1719 35.7656L22.0469 35.0156L20.9219 33.1406L21.6719 30.8906L23.9219 30.1406L25.4219 31.2656V32.7656L25.0469 34.2656L25.4219 35.3906L27.6719 35.7656V33.1406L29.1719 31.6406L31.4219 32.0156L32.1719 34.6406L31.0469 36.5156L32.5469 37.2656L34.0469 41.7656Z" fill="#F9F4EC"/>
<path d="M40.6094 24.8906H36.4844V15.5156H39.4844L41.7344 15.8906L43.2344 12.5156L45.4844 10.6406L47.7344 12.5156L48.1094 15.1406L51.8594 15.8906L52.2344 20.7656L51.8594 24.1406L46.9844 24.8906L41.3594 23.7656L40.6094 24.8906Z" fill="#F6EEE4"/>
</svg>
