<svg width="78" height="78" viewBox="0 0 78 78" fill="none" xmlns="http://www.w3.org/2000/svg">
<path d="M66.7405 41.6387H60.7083C61.3231 43.3221 61.659 45.1388 61.659 47.0323V69.8305C61.659 70.62 61.5216 71.3778 61.2716 72.0825H71.2442C74.9695 72.0825 78.0001 69.0518 78.0001 65.3266V52.8983C78.0002 46.6898 72.9491 41.6387 66.7405 41.6387Z" fill="#F4A58A"/>
<path d="M16.3412 47.0324C16.3412 45.1388 16.6771 43.3222 17.292 41.6388H11.2597C5.05112 41.6388 0 46.6899 0 52.8986V65.327C0 69.0521 3.03058 72.0828 6.75585 72.0828H16.7286C16.4786 71.3777 16.3412 70.6201 16.3412 69.8307V47.0324Z" fill="#F4A58A"/>
<path d="M45.8952 35.7727H32.1047C25.8961 35.7727 20.845 40.8238 20.845 47.0324V69.8307C20.845 71.0743 21.8532 72.0826 23.0969 72.0826H54.903C56.1467 72.0826 57.1549 71.0744 57.1549 69.8307V47.0324C57.1549 40.8238 52.1038 35.7727 45.8952 35.7727Z" fill="#F4A58A"/>
<path d="M39 5.91705C31.5333 5.91705 25.4587 11.9916 25.4587 19.4585C25.4587 24.5231 28.2541 28.9464 32.3823 31.2688C34.3404 32.3702 36.5978 32.9997 39 32.9997C41.4022 32.9997 43.6596 32.3702 45.6177 31.2688C49.746 28.9464 52.5412 24.523 52.5412 19.4585C52.5412 11.9918 46.4667 5.91705 39 5.91705Z" fill="#F4A58A"/>
<path d="M15.2219 18.5386C9.63775 18.5386 5.09485 23.0815 5.09485 28.6657C5.09485 34.2498 9.63775 38.7927 15.2219 38.7927C16.6384 38.7927 17.9873 38.4993 19.2126 37.9719C21.3311 37.0598 23.0778 35.4453 24.1587 33.4229C24.9174 32.0035 25.349 30.3843 25.349 28.6657C25.349 23.0817 20.8061 18.5386 15.2219 18.5386Z" fill="#F4A58A"/>
<path d="M62.7782 18.5386C57.194 18.5386 52.6511 23.0815 52.6511 28.6657C52.6511 30.3844 53.0827 32.0037 53.8414 33.4229C54.9223 35.4454 56.669 37.06 58.7875 37.9719C60.0128 38.4993 61.3617 38.7927 62.7782 38.7927C68.3624 38.7927 72.9053 34.2498 72.9053 28.6657C72.9053 23.0815 68.3624 18.5386 62.7782 18.5386Z" fill="#F4A58A"/>
</svg>
